<mxfile host="app.diagrams.net" modified="2022-09-20T06:28:37.460Z" agent="5.0 (Windows NT 10.0; Win64; x64) AppleWebKit/537.36 (KHTML, like Gecko) Chrome/105.0.0.0 Safari/537.36" etag="qN53ub-rLOmYcLVEWvBN" version="20.3.3" type="github">
  <diagram id="prtHgNgQTEPvFCAcTncT" name="Page-1">
    <mxGraphModel dx="1182" dy="732" grid="1" gridSize="10" guides="1" tooltips="1" connect="1" arrows="1" fold="1" page="1" pageScale="1" pageWidth="827" pageHeight="1169" math="0" shadow="0">
      <root>
        <mxCell id="0" />
        <mxCell id="1" parent="0" />
        <mxCell id="AfduvXCLg51XsXEQA9db-1" value="HTML" style="rounded=0;whiteSpace=wrap;html=1;" vertex="1" parent="1">
          <mxGeometry x="360" y="20" width="80" height="20" as="geometry" />
        </mxCell>
        <mxCell id="AfduvXCLg51XsXEQA9db-19" style="edgeStyle=orthogonalEdgeStyle;shape=link;rounded=0;orthogonalLoop=1;jettySize=auto;html=1;exitX=0.5;exitY=1;exitDx=0;exitDy=0;entryX=0.5;entryY=0;entryDx=0;entryDy=0;" edge="1" parent="1" source="AfduvXCLg51XsXEQA9db-2" target="AfduvXCLg51XsXEQA9db-4">
          <mxGeometry relative="1" as="geometry" />
        </mxCell>
        <mxCell id="AfduvXCLg51XsXEQA9db-51" style="edgeStyle=orthogonalEdgeStyle;shape=link;rounded=0;orthogonalLoop=1;jettySize=auto;html=1;exitX=0.5;exitY=0;exitDx=0;exitDy=0;entryX=0.5;entryY=1;entryDx=0;entryDy=0;" edge="1" parent="1" source="AfduvXCLg51XsXEQA9db-2" target="AfduvXCLg51XsXEQA9db-1">
          <mxGeometry relative="1" as="geometry" />
        </mxCell>
        <mxCell id="AfduvXCLg51XsXEQA9db-2" value="HEAD" style="rounded=0;whiteSpace=wrap;html=1;" vertex="1" parent="1">
          <mxGeometry x="180" y="80" width="80" height="20" as="geometry" />
        </mxCell>
        <mxCell id="AfduvXCLg51XsXEQA9db-52" style="edgeStyle=orthogonalEdgeStyle;shape=link;rounded=0;orthogonalLoop=1;jettySize=auto;html=1;entryX=0.5;entryY=1;entryDx=0;entryDy=0;" edge="1" parent="1" source="AfduvXCLg51XsXEQA9db-3" target="AfduvXCLg51XsXEQA9db-1">
          <mxGeometry relative="1" as="geometry">
            <Array as="points">
              <mxPoint x="640" y="60" />
              <mxPoint x="400" y="60" />
            </Array>
          </mxGeometry>
        </mxCell>
        <mxCell id="AfduvXCLg51XsXEQA9db-3" value="BODY" style="rounded=0;whiteSpace=wrap;html=1;" vertex="1" parent="1">
          <mxGeometry x="600" y="80" width="80" height="20" as="geometry" />
        </mxCell>
        <mxCell id="AfduvXCLg51XsXEQA9db-4" value="HEAD" style="rounded=0;whiteSpace=wrap;html=1;" vertex="1" parent="1">
          <mxGeometry x="10" y="140" width="80" height="20" as="geometry" />
        </mxCell>
        <mxCell id="AfduvXCLg51XsXEQA9db-20" style="edgeStyle=orthogonalEdgeStyle;shape=link;rounded=0;orthogonalLoop=1;jettySize=auto;html=1;exitX=0.5;exitY=0;exitDx=0;exitDy=0;" edge="1" parent="1" source="AfduvXCLg51XsXEQA9db-5">
          <mxGeometry relative="1" as="geometry">
            <mxPoint x="220" y="100" as="targetPoint" />
          </mxGeometry>
        </mxCell>
        <mxCell id="AfduvXCLg51XsXEQA9db-5" value="META" style="rounded=0;whiteSpace=wrap;html=1;" vertex="1" parent="1">
          <mxGeometry x="100" y="140" width="80" height="20" as="geometry" />
        </mxCell>
        <mxCell id="AfduvXCLg51XsXEQA9db-21" style="edgeStyle=orthogonalEdgeStyle;shape=link;rounded=0;orthogonalLoop=1;jettySize=auto;html=1;exitX=0.5;exitY=0;exitDx=0;exitDy=0;" edge="1" parent="1" source="AfduvXCLg51XsXEQA9db-6">
          <mxGeometry relative="1" as="geometry">
            <mxPoint x="220" y="100" as="targetPoint" />
          </mxGeometry>
        </mxCell>
        <mxCell id="AfduvXCLg51XsXEQA9db-6" value="META" style="rounded=0;whiteSpace=wrap;html=1;" vertex="1" parent="1">
          <mxGeometry x="190" y="140" width="80" height="20" as="geometry" />
        </mxCell>
        <mxCell id="AfduvXCLg51XsXEQA9db-22" style="edgeStyle=orthogonalEdgeStyle;shape=link;rounded=0;orthogonalLoop=1;jettySize=auto;html=1;entryX=0.5;entryY=1;entryDx=0;entryDy=0;" edge="1" parent="1" source="AfduvXCLg51XsXEQA9db-8" target="AfduvXCLg51XsXEQA9db-2">
          <mxGeometry relative="1" as="geometry">
            <Array as="points">
              <mxPoint x="320" y="120" />
              <mxPoint x="220" y="120" />
            </Array>
          </mxGeometry>
        </mxCell>
        <mxCell id="AfduvXCLg51XsXEQA9db-8" value="META" style="rounded=0;whiteSpace=wrap;html=1;" vertex="1" parent="1">
          <mxGeometry x="280" y="140" width="80" height="20" as="geometry" />
        </mxCell>
        <mxCell id="AfduvXCLg51XsXEQA9db-23" style="edgeStyle=orthogonalEdgeStyle;shape=link;rounded=0;orthogonalLoop=1;jettySize=auto;html=1;" edge="1" parent="1" source="AfduvXCLg51XsXEQA9db-9">
          <mxGeometry relative="1" as="geometry">
            <mxPoint x="220" y="100" as="targetPoint" />
            <Array as="points">
              <mxPoint x="410" y="120" />
              <mxPoint x="220" y="120" />
            </Array>
          </mxGeometry>
        </mxCell>
        <mxCell id="AfduvXCLg51XsXEQA9db-9" value="LINK" style="rounded=0;whiteSpace=wrap;html=1;" vertex="1" parent="1">
          <mxGeometry x="370" y="140" width="80" height="20" as="geometry" />
        </mxCell>
        <mxCell id="AfduvXCLg51XsXEQA9db-24" style="edgeStyle=orthogonalEdgeStyle;shape=link;rounded=0;orthogonalLoop=1;jettySize=auto;html=1;exitX=0.5;exitY=0;exitDx=0;exitDy=0;" edge="1" parent="1" source="AfduvXCLg51XsXEQA9db-10">
          <mxGeometry relative="1" as="geometry">
            <mxPoint x="220" y="100" as="targetPoint" />
          </mxGeometry>
        </mxCell>
        <mxCell id="AfduvXCLg51XsXEQA9db-10" value="LINK" style="rounded=0;whiteSpace=wrap;html=1;" vertex="1" parent="1">
          <mxGeometry x="460" y="140" width="80" height="20" as="geometry" />
        </mxCell>
        <mxCell id="AfduvXCLg51XsXEQA9db-35" style="edgeStyle=orthogonalEdgeStyle;shape=link;rounded=0;orthogonalLoop=1;jettySize=auto;html=1;" edge="1" parent="1" source="AfduvXCLg51XsXEQA9db-25" target="AfduvXCLg51XsXEQA9db-30">
          <mxGeometry relative="1" as="geometry" />
        </mxCell>
        <mxCell id="AfduvXCLg51XsXEQA9db-41" style="edgeStyle=orthogonalEdgeStyle;shape=link;rounded=0;orthogonalLoop=1;jettySize=auto;html=1;exitX=0.5;exitY=0;exitDx=0;exitDy=0;entryX=0.5;entryY=1;entryDx=0;entryDy=0;" edge="1" parent="1" source="AfduvXCLg51XsXEQA9db-25" target="AfduvXCLg51XsXEQA9db-3">
          <mxGeometry relative="1" as="geometry">
            <Array as="points">
              <mxPoint x="100" y="180" />
              <mxPoint x="640" y="180" />
            </Array>
          </mxGeometry>
        </mxCell>
        <mxCell id="AfduvXCLg51XsXEQA9db-25" value="DIV" style="rounded=0;whiteSpace=wrap;html=1;" vertex="1" parent="1">
          <mxGeometry x="60" y="220" width="80" height="20" as="geometry" />
        </mxCell>
        <mxCell id="AfduvXCLg51XsXEQA9db-47" style="edgeStyle=orthogonalEdgeStyle;shape=link;rounded=0;orthogonalLoop=1;jettySize=auto;html=1;" edge="1" parent="1" source="AfduvXCLg51XsXEQA9db-26" target="AfduvXCLg51XsXEQA9db-43">
          <mxGeometry relative="1" as="geometry" />
        </mxCell>
        <mxCell id="AfduvXCLg51XsXEQA9db-50" style="edgeStyle=orthogonalEdgeStyle;shape=link;rounded=0;orthogonalLoop=1;jettySize=auto;html=1;entryX=0.5;entryY=1;entryDx=0;entryDy=0;" edge="1" parent="1" source="AfduvXCLg51XsXEQA9db-26" target="AfduvXCLg51XsXEQA9db-3">
          <mxGeometry relative="1" as="geometry">
            <Array as="points">
              <mxPoint x="300" y="180" />
              <mxPoint x="640" y="180" />
            </Array>
          </mxGeometry>
        </mxCell>
        <mxCell id="AfduvXCLg51XsXEQA9db-26" value="HEADER" style="rounded=0;whiteSpace=wrap;html=1;" vertex="1" parent="1">
          <mxGeometry x="260" y="220" width="80" height="20" as="geometry" />
        </mxCell>
        <mxCell id="AfduvXCLg51XsXEQA9db-66" style="edgeStyle=orthogonalEdgeStyle;shape=link;rounded=0;orthogonalLoop=1;jettySize=auto;html=1;entryX=0.5;entryY=1;entryDx=0;entryDy=0;" edge="1" parent="1" source="AfduvXCLg51XsXEQA9db-27" target="AfduvXCLg51XsXEQA9db-3">
          <mxGeometry relative="1" as="geometry">
            <Array as="points">
              <mxPoint x="480" y="180" />
              <mxPoint x="640" y="180" />
            </Array>
          </mxGeometry>
        </mxCell>
        <mxCell id="AfduvXCLg51XsXEQA9db-27" value="DIV" style="rounded=0;whiteSpace=wrap;html=1;" vertex="1" parent="1">
          <mxGeometry x="440" y="220" width="80" height="20" as="geometry" />
        </mxCell>
        <mxCell id="AfduvXCLg51XsXEQA9db-61" value="" style="edgeStyle=orthogonalEdgeStyle;shape=link;rounded=0;orthogonalLoop=1;jettySize=auto;html=1;entryX=0.5;entryY=0;entryDx=0;entryDy=0;" edge="1" parent="1" source="AfduvXCLg51XsXEQA9db-28" target="AfduvXCLg51XsXEQA9db-55">
          <mxGeometry relative="1" as="geometry" />
        </mxCell>
        <mxCell id="AfduvXCLg51XsXEQA9db-64" style="edgeStyle=orthogonalEdgeStyle;shape=link;rounded=0;orthogonalLoop=1;jettySize=auto;html=1;exitX=0.5;exitY=0;exitDx=0;exitDy=0;entryX=0.5;entryY=1;entryDx=0;entryDy=0;" edge="1" parent="1" source="AfduvXCLg51XsXEQA9db-28" target="AfduvXCLg51XsXEQA9db-3">
          <mxGeometry relative="1" as="geometry">
            <Array as="points">
              <mxPoint x="640" y="200" />
              <mxPoint x="640" y="200" />
            </Array>
          </mxGeometry>
        </mxCell>
        <mxCell id="AfduvXCLg51XsXEQA9db-28" value="FOOTER" style="rounded=0;whiteSpace=wrap;html=1;" vertex="1" parent="1">
          <mxGeometry x="600" y="220" width="80" height="20" as="geometry" />
        </mxCell>
        <mxCell id="AfduvXCLg51XsXEQA9db-29" value="a" style="rounded=0;whiteSpace=wrap;html=1;" vertex="1" parent="1">
          <mxGeometry x="10" y="320" width="80" height="20" as="geometry" />
        </mxCell>
        <mxCell id="AfduvXCLg51XsXEQA9db-36" style="edgeStyle=orthogonalEdgeStyle;shape=link;rounded=0;orthogonalLoop=1;jettySize=auto;html=1;entryX=0.5;entryY=0;entryDx=0;entryDy=0;" edge="1" parent="1" source="AfduvXCLg51XsXEQA9db-30" target="AfduvXCLg51XsXEQA9db-29">
          <mxGeometry relative="1" as="geometry" />
        </mxCell>
        <mxCell id="AfduvXCLg51XsXEQA9db-30" value="DIV" style="rounded=0;whiteSpace=wrap;html=1;" vertex="1" parent="1">
          <mxGeometry x="60" y="270" width="80" height="20" as="geometry" />
        </mxCell>
        <mxCell id="AfduvXCLg51XsXEQA9db-39" style="edgeStyle=orthogonalEdgeStyle;shape=link;rounded=0;orthogonalLoop=1;jettySize=auto;html=1;exitX=0.5;exitY=0;exitDx=0;exitDy=0;entryX=0.5;entryY=1;entryDx=0;entryDy=0;" edge="1" parent="1" source="AfduvXCLg51XsXEQA9db-31" target="AfduvXCLg51XsXEQA9db-32">
          <mxGeometry relative="1" as="geometry" />
        </mxCell>
        <mxCell id="AfduvXCLg51XsXEQA9db-31" value="a" style="rounded=0;whiteSpace=wrap;html=1;" vertex="1" parent="1">
          <mxGeometry x="10" y="380" width="80" height="20" as="geometry" />
        </mxCell>
        <mxCell id="AfduvXCLg51XsXEQA9db-37" style="edgeStyle=orthogonalEdgeStyle;shape=link;rounded=0;orthogonalLoop=1;jettySize=auto;html=1;exitX=0.5;exitY=0;exitDx=0;exitDy=0;entryX=0.5;entryY=1;entryDx=0;entryDy=0;" edge="1" parent="1" source="AfduvXCLg51XsXEQA9db-32" target="AfduvXCLg51XsXEQA9db-30">
          <mxGeometry relative="1" as="geometry">
            <Array as="points">
              <mxPoint x="140" y="310" />
              <mxPoint x="100" y="310" />
            </Array>
          </mxGeometry>
        </mxCell>
        <mxCell id="AfduvXCLg51XsXEQA9db-38" style="edgeStyle=orthogonalEdgeStyle;shape=link;rounded=0;orthogonalLoop=1;jettySize=auto;html=1;exitX=0.5;exitY=1;exitDx=0;exitDy=0;entryX=0.5;entryY=0;entryDx=0;entryDy=0;" edge="1" parent="1" source="AfduvXCLg51XsXEQA9db-32" target="AfduvXCLg51XsXEQA9db-34">
          <mxGeometry relative="1" as="geometry" />
        </mxCell>
        <mxCell id="AfduvXCLg51XsXEQA9db-32" value="DIV" style="rounded=0;whiteSpace=wrap;html=1;" vertex="1" parent="1">
          <mxGeometry x="100" y="320" width="80" height="20" as="geometry" />
        </mxCell>
        <mxCell id="AfduvXCLg51XsXEQA9db-40" style="edgeStyle=orthogonalEdgeStyle;shape=link;rounded=0;orthogonalLoop=1;jettySize=auto;html=1;entryX=0.5;entryY=1;entryDx=0;entryDy=0;" edge="1" parent="1" source="AfduvXCLg51XsXEQA9db-33" target="AfduvXCLg51XsXEQA9db-32">
          <mxGeometry relative="1" as="geometry">
            <Array as="points">
              <mxPoint x="230" y="360" />
              <mxPoint x="140" y="360" />
            </Array>
          </mxGeometry>
        </mxCell>
        <mxCell id="AfduvXCLg51XsXEQA9db-33" value="a" style="rounded=0;whiteSpace=wrap;html=1;" vertex="1" parent="1">
          <mxGeometry x="190" y="380" width="80" height="20" as="geometry" />
        </mxCell>
        <mxCell id="AfduvXCLg51XsXEQA9db-34" value="a" style="rounded=0;whiteSpace=wrap;html=1;" vertex="1" parent="1">
          <mxGeometry x="100" y="380" width="80" height="20" as="geometry" />
        </mxCell>
        <mxCell id="AfduvXCLg51XsXEQA9db-48" style="edgeStyle=orthogonalEdgeStyle;shape=link;rounded=0;orthogonalLoop=1;jettySize=auto;html=1;entryX=0.5;entryY=1;entryDx=0;entryDy=0;" edge="1" parent="1" source="AfduvXCLg51XsXEQA9db-42" target="AfduvXCLg51XsXEQA9db-26">
          <mxGeometry relative="1" as="geometry">
            <Array as="points">
              <mxPoint x="210" y="260" />
              <mxPoint x="300" y="260" />
            </Array>
          </mxGeometry>
        </mxCell>
        <mxCell id="AfduvXCLg51XsXEQA9db-42" value="IMG" style="rounded=0;whiteSpace=wrap;html=1;" vertex="1" parent="1">
          <mxGeometry x="170" y="270" width="80" height="20" as="geometry" />
        </mxCell>
        <mxCell id="AfduvXCLg51XsXEQA9db-49" style="edgeStyle=orthogonalEdgeStyle;shape=link;rounded=0;orthogonalLoop=1;jettySize=auto;html=1;" edge="1" parent="1" source="AfduvXCLg51XsXEQA9db-43" target="AfduvXCLg51XsXEQA9db-44">
          <mxGeometry relative="1" as="geometry" />
        </mxCell>
        <mxCell id="AfduvXCLg51XsXEQA9db-43" value="DIV" style="rounded=0;whiteSpace=wrap;html=1;" vertex="1" parent="1">
          <mxGeometry x="260" y="270" width="80" height="20" as="geometry" />
        </mxCell>
        <mxCell id="AfduvXCLg51XsXEQA9db-44" value="H1" style="rounded=0;whiteSpace=wrap;html=1;" vertex="1" parent="1">
          <mxGeometry x="260" y="320" width="80" height="20" as="geometry" />
        </mxCell>
        <mxCell id="AfduvXCLg51XsXEQA9db-78" style="edgeStyle=orthogonalEdgeStyle;shape=link;rounded=0;orthogonalLoop=1;jettySize=auto;html=1;entryX=0.5;entryY=0;entryDx=0;entryDy=0;" edge="1" parent="1" source="AfduvXCLg51XsXEQA9db-53" target="AfduvXCLg51XsXEQA9db-70">
          <mxGeometry relative="1" as="geometry" />
        </mxCell>
        <mxCell id="AfduvXCLg51XsXEQA9db-85" style="edgeStyle=orthogonalEdgeStyle;shape=link;rounded=0;orthogonalLoop=1;jettySize=auto;html=1;exitX=0.5;exitY=0;exitDx=0;exitDy=0;entryX=0.5;entryY=1;entryDx=0;entryDy=0;" edge="1" parent="1" source="AfduvXCLg51XsXEQA9db-53" target="AfduvXCLg51XsXEQA9db-27">
          <mxGeometry relative="1" as="geometry">
            <Array as="points">
              <mxPoint x="50" y="420" />
              <mxPoint x="480" y="420" />
            </Array>
          </mxGeometry>
        </mxCell>
        <mxCell id="AfduvXCLg51XsXEQA9db-53" value="DIV" style="rounded=0;whiteSpace=wrap;html=1;" vertex="1" parent="1">
          <mxGeometry x="10" y="440" width="80" height="20" as="geometry" />
        </mxCell>
        <mxCell id="AfduvXCLg51XsXEQA9db-93" style="edgeStyle=orthogonalEdgeStyle;shape=link;rounded=0;orthogonalLoop=1;jettySize=auto;html=1;entryX=0.5;entryY=1;entryDx=0;entryDy=0;" edge="1" parent="1" source="AfduvXCLg51XsXEQA9db-54" target="AfduvXCLg51XsXEQA9db-27">
          <mxGeometry relative="1" as="geometry">
            <Array as="points">
              <mxPoint x="480" y="340" />
              <mxPoint x="480" y="340" />
            </Array>
          </mxGeometry>
        </mxCell>
        <mxCell id="AfduvXCLg51XsXEQA9db-141" style="edgeStyle=orthogonalEdgeStyle;shape=link;rounded=0;orthogonalLoop=1;jettySize=auto;html=1;exitX=0.5;exitY=1;exitDx=0;exitDy=0;entryX=0.5;entryY=0;entryDx=0;entryDy=0;" edge="1" parent="1" source="AfduvXCLg51XsXEQA9db-54" target="AfduvXCLg51XsXEQA9db-100">
          <mxGeometry relative="1" as="geometry" />
        </mxCell>
        <mxCell id="AfduvXCLg51XsXEQA9db-54" value="DIV" style="rounded=0;whiteSpace=wrap;html=1;" vertex="1" parent="1">
          <mxGeometry x="440" y="440" width="80" height="20" as="geometry" />
        </mxCell>
        <mxCell id="AfduvXCLg51XsXEQA9db-63" style="edgeStyle=orthogonalEdgeStyle;shape=link;rounded=0;orthogonalLoop=1;jettySize=auto;html=1;entryX=0.5;entryY=0;entryDx=0;entryDy=0;" edge="1" parent="1" source="AfduvXCLg51XsXEQA9db-55" target="AfduvXCLg51XsXEQA9db-56">
          <mxGeometry relative="1" as="geometry" />
        </mxCell>
        <mxCell id="AfduvXCLg51XsXEQA9db-55" value="P" style="rounded=0;whiteSpace=wrap;html=1;" vertex="1" parent="1">
          <mxGeometry x="600" y="270" width="80" height="20" as="geometry" />
        </mxCell>
        <mxCell id="AfduvXCLg51XsXEQA9db-56" value="a" style="rounded=0;whiteSpace=wrap;html=1;" vertex="1" parent="1">
          <mxGeometry x="600" y="320" width="80" height="20" as="geometry" />
        </mxCell>
        <mxCell id="AfduvXCLg51XsXEQA9db-65" style="edgeStyle=orthogonalEdgeStyle;shape=link;rounded=0;orthogonalLoop=1;jettySize=auto;html=1;exitX=0.5;exitY=0;exitDx=0;exitDy=0;entryX=0.5;entryY=1;entryDx=0;entryDy=0;" edge="1" parent="1" source="AfduvXCLg51XsXEQA9db-57" target="AfduvXCLg51XsXEQA9db-3">
          <mxGeometry relative="1" as="geometry">
            <Array as="points">
              <mxPoint x="910" y="180" />
              <mxPoint x="640" y="180" />
            </Array>
          </mxGeometry>
        </mxCell>
        <mxCell id="AfduvXCLg51XsXEQA9db-57" value="script" style="rounded=0;whiteSpace=wrap;html=1;" vertex="1" parent="1">
          <mxGeometry x="870" y="220" width="80" height="20" as="geometry" />
        </mxCell>
        <mxCell id="AfduvXCLg51XsXEQA9db-121" style="edgeStyle=orthogonalEdgeStyle;shape=link;rounded=0;orthogonalLoop=1;jettySize=auto;html=1;entryX=0.5;entryY=1;entryDx=0;entryDy=0;" edge="1" parent="1" source="AfduvXCLg51XsXEQA9db-67" target="AfduvXCLg51XsXEQA9db-27">
          <mxGeometry relative="1" as="geometry">
            <Array as="points">
              <mxPoint x="1040" y="420" />
              <mxPoint x="480" y="420" />
            </Array>
          </mxGeometry>
        </mxCell>
        <mxCell id="AfduvXCLg51XsXEQA9db-67" value="DIV" style="rounded=0;whiteSpace=wrap;html=1;" vertex="1" parent="1">
          <mxGeometry x="1000" y="440" width="80" height="20" as="geometry" />
        </mxCell>
        <mxCell id="AfduvXCLg51XsXEQA9db-120" style="edgeStyle=orthogonalEdgeStyle;shape=link;rounded=0;orthogonalLoop=1;jettySize=auto;html=1;entryX=0.5;entryY=1;entryDx=0;entryDy=0;" edge="1" parent="1" source="AfduvXCLg51XsXEQA9db-68" target="AfduvXCLg51XsXEQA9db-27">
          <mxGeometry relative="1" as="geometry">
            <Array as="points">
              <mxPoint x="730" y="420" />
              <mxPoint x="480" y="420" />
            </Array>
          </mxGeometry>
        </mxCell>
        <mxCell id="AfduvXCLg51XsXEQA9db-68" value="HR" style="rounded=0;whiteSpace=wrap;html=1;" vertex="1" parent="1">
          <mxGeometry x="690" y="440" width="80" height="20" as="geometry" />
        </mxCell>
        <mxCell id="AfduvXCLg51XsXEQA9db-92" style="edgeStyle=orthogonalEdgeStyle;shape=link;rounded=0;orthogonalLoop=1;jettySize=auto;html=1;entryX=0.5;entryY=1;entryDx=0;entryDy=0;" edge="1" parent="1" source="AfduvXCLg51XsXEQA9db-69" target="AfduvXCLg51XsXEQA9db-27">
          <mxGeometry relative="1" as="geometry">
            <Array as="points">
              <mxPoint x="250" y="420" />
              <mxPoint x="480" y="420" />
            </Array>
          </mxGeometry>
        </mxCell>
        <mxCell id="AfduvXCLg51XsXEQA9db-69" value="HR" style="rounded=0;whiteSpace=wrap;html=1;" vertex="1" parent="1">
          <mxGeometry x="210" y="440" width="80" height="20" as="geometry" />
        </mxCell>
        <mxCell id="AfduvXCLg51XsXEQA9db-79" style="edgeStyle=orthogonalEdgeStyle;shape=link;rounded=0;orthogonalLoop=1;jettySize=auto;html=1;entryX=0.5;entryY=0;entryDx=0;entryDy=0;" edge="1" parent="1" source="AfduvXCLg51XsXEQA9db-70" target="AfduvXCLg51XsXEQA9db-75">
          <mxGeometry relative="1" as="geometry" />
        </mxCell>
        <mxCell id="AfduvXCLg51XsXEQA9db-70" value="DIV" style="rounded=0;whiteSpace=wrap;html=1;" vertex="1" parent="1">
          <mxGeometry x="10" y="500" width="80" height="20" as="geometry" />
        </mxCell>
        <mxCell id="AfduvXCLg51XsXEQA9db-82" style="edgeStyle=orthogonalEdgeStyle;shape=link;rounded=0;orthogonalLoop=1;jettySize=auto;html=1;exitX=0.5;exitY=0;exitDx=0;exitDy=0;entryX=0.5;entryY=1;entryDx=0;entryDy=0;" edge="1" parent="1" source="AfduvXCLg51XsXEQA9db-71" target="AfduvXCLg51XsXEQA9db-53">
          <mxGeometry relative="1" as="geometry" />
        </mxCell>
        <mxCell id="AfduvXCLg51XsXEQA9db-71" value="DIV" style="rounded=0;whiteSpace=wrap;html=1;" vertex="1" parent="1">
          <mxGeometry x="100" y="500" width="80" height="20" as="geometry" />
        </mxCell>
        <mxCell id="AfduvXCLg51XsXEQA9db-87" style="edgeStyle=orthogonalEdgeStyle;shape=link;rounded=0;orthogonalLoop=1;jettySize=auto;html=1;exitX=0.5;exitY=0;exitDx=0;exitDy=0;entryX=0.5;entryY=1;entryDx=0;entryDy=0;" edge="1" parent="1" source="AfduvXCLg51XsXEQA9db-72" target="AfduvXCLg51XsXEQA9db-71">
          <mxGeometry relative="1" as="geometry" />
        </mxCell>
        <mxCell id="AfduvXCLg51XsXEQA9db-72" value="BR" style="rounded=0;whiteSpace=wrap;html=1;" vertex="1" parent="1">
          <mxGeometry x="100" y="600" width="80" height="20" as="geometry" />
        </mxCell>
        <mxCell id="AfduvXCLg51XsXEQA9db-88" style="edgeStyle=orthogonalEdgeStyle;shape=link;rounded=0;orthogonalLoop=1;jettySize=auto;html=1;" edge="1" parent="1" source="AfduvXCLg51XsXEQA9db-73">
          <mxGeometry relative="1" as="geometry">
            <mxPoint x="140" y="520" as="targetPoint" />
            <Array as="points">
              <mxPoint x="230" y="580" />
              <mxPoint x="140" y="580" />
            </Array>
          </mxGeometry>
        </mxCell>
        <mxCell id="AfduvXCLg51XsXEQA9db-73" value="H5" style="rounded=0;whiteSpace=wrap;html=1;" vertex="1" parent="1">
          <mxGeometry x="190" y="600" width="80" height="20" as="geometry" />
        </mxCell>
        <mxCell id="AfduvXCLg51XsXEQA9db-89" style="edgeStyle=orthogonalEdgeStyle;shape=link;rounded=0;orthogonalLoop=1;jettySize=auto;html=1;" edge="1" parent="1" source="AfduvXCLg51XsXEQA9db-74">
          <mxGeometry relative="1" as="geometry">
            <mxPoint x="140" y="520" as="targetPoint" />
            <Array as="points">
              <mxPoint x="320" y="580" />
              <mxPoint x="140" y="580" />
            </Array>
          </mxGeometry>
        </mxCell>
        <mxCell id="AfduvXCLg51XsXEQA9db-91" style="edgeStyle=orthogonalEdgeStyle;shape=link;rounded=0;orthogonalLoop=1;jettySize=auto;html=1;exitX=0.5;exitY=1;exitDx=0;exitDy=0;entryX=0.5;entryY=0;entryDx=0;entryDy=0;" edge="1" parent="1" source="AfduvXCLg51XsXEQA9db-74" target="AfduvXCLg51XsXEQA9db-84">
          <mxGeometry relative="1" as="geometry" />
        </mxCell>
        <mxCell id="AfduvXCLg51XsXEQA9db-74" value="P" style="rounded=0;whiteSpace=wrap;html=1;" vertex="1" parent="1">
          <mxGeometry x="280" y="600" width="80" height="20" as="geometry" />
        </mxCell>
        <mxCell id="AfduvXCLg51XsXEQA9db-75" value="IMG&lt;span style=&quot;color: rgba(0, 0, 0, 0); font-family: monospace; font-size: 0px; text-align: start;&quot;&gt;%3CmxGraphModel%3E%3Croot%3E%3CmxCell%20id%3D%220%22%2F%3E%3CmxCell%20id%3D%221%22%20parent%3D%220%22%2F%3E%3CmxCell%20id%3D%222%22%20value%3D%22DIV%22%20style%3D%22rounded%3D0%3BwhiteSpace%3Dwrap%3Bhtml%3D1%3B%22%20vertex%3D%221%22%20parent%3D%221%22%3E%3CmxGeometry%20x%3D%2210%22%20y%3D%22520%22%20width%3D%2280%22%20height%3D%2220%22%20as%3D%22geometry%22%2F%3E%3C%2FmxCell%3E%3C%2Froot%3E%3C%2FmxGraphModel%3E&lt;/span&gt;" style="rounded=0;whiteSpace=wrap;html=1;" vertex="1" parent="1">
          <mxGeometry x="10" y="540" width="80" height="20" as="geometry" />
        </mxCell>
        <mxCell id="AfduvXCLg51XsXEQA9db-86" style="edgeStyle=orthogonalEdgeStyle;shape=link;rounded=0;orthogonalLoop=1;jettySize=auto;html=1;entryX=0.5;entryY=1;entryDx=0;entryDy=0;" edge="1" parent="1" source="AfduvXCLg51XsXEQA9db-76" target="AfduvXCLg51XsXEQA9db-71">
          <mxGeometry relative="1" as="geometry">
            <Array as="points">
              <mxPoint x="50" y="580" />
              <mxPoint x="140" y="580" />
            </Array>
          </mxGeometry>
        </mxCell>
        <mxCell id="AfduvXCLg51XsXEQA9db-76" value="H1" style="rounded=0;whiteSpace=wrap;html=1;" vertex="1" parent="1">
          <mxGeometry x="10" y="600" width="80" height="20" as="geometry" />
        </mxCell>
        <mxCell id="AfduvXCLg51XsXEQA9db-81" style="edgeStyle=orthogonalEdgeStyle;shape=link;rounded=0;orthogonalLoop=1;jettySize=auto;html=1;exitX=0.5;exitY=1;exitDx=0;exitDy=0;" edge="1" parent="1" source="AfduvXCLg51XsXEQA9db-71" target="AfduvXCLg51XsXEQA9db-71">
          <mxGeometry relative="1" as="geometry" />
        </mxCell>
        <mxCell id="AfduvXCLg51XsXEQA9db-90" style="edgeStyle=orthogonalEdgeStyle;shape=link;rounded=0;orthogonalLoop=1;jettySize=auto;html=1;entryX=0.5;entryY=1;entryDx=0;entryDy=0;" edge="1" parent="1" source="AfduvXCLg51XsXEQA9db-83" target="AfduvXCLg51XsXEQA9db-71">
          <mxGeometry relative="1" as="geometry">
            <Array as="points">
              <mxPoint x="410" y="580" />
              <mxPoint x="140" y="580" />
            </Array>
          </mxGeometry>
        </mxCell>
        <mxCell id="AfduvXCLg51XsXEQA9db-83" value="P" style="rounded=0;whiteSpace=wrap;html=1;" vertex="1" parent="1">
          <mxGeometry x="370" y="600" width="80" height="20" as="geometry" />
        </mxCell>
        <mxCell id="AfduvXCLg51XsXEQA9db-84" value="SPAN" style="rounded=0;whiteSpace=wrap;html=1;" vertex="1" parent="1">
          <mxGeometry x="280" y="640" width="80" height="20" as="geometry" />
        </mxCell>
        <mxCell id="AfduvXCLg51XsXEQA9db-123" style="edgeStyle=orthogonalEdgeStyle;shape=link;rounded=0;orthogonalLoop=1;jettySize=auto;html=1;exitX=0.5;exitY=0;exitDx=0;exitDy=0;entryX=0.5;entryY=1;entryDx=0;entryDy=0;" edge="1" parent="1" source="AfduvXCLg51XsXEQA9db-94" target="AfduvXCLg51XsXEQA9db-100">
          <mxGeometry relative="1" as="geometry">
            <Array as="points">
              <mxPoint x="20" y="680" />
              <mxPoint x="480" y="680" />
            </Array>
          </mxGeometry>
        </mxCell>
        <mxCell id="AfduvXCLg51XsXEQA9db-94" value="H1" style="rounded=0;whiteSpace=wrap;html=1;" vertex="1" parent="1">
          <mxGeometry y="720" width="40" height="20" as="geometry" />
        </mxCell>
        <mxCell id="AfduvXCLg51XsXEQA9db-142" style="edgeStyle=orthogonalEdgeStyle;shape=link;rounded=0;orthogonalLoop=1;jettySize=auto;html=1;entryX=0.5;entryY=1;entryDx=0;entryDy=0;" edge="1" parent="1" source="AfduvXCLg51XsXEQA9db-99" target="AfduvXCLg51XsXEQA9db-54">
          <mxGeometry relative="1" as="geometry">
            <Array as="points">
              <mxPoint x="570" y="480" />
              <mxPoint x="480" y="480" />
            </Array>
          </mxGeometry>
        </mxCell>
        <mxCell id="AfduvXCLg51XsXEQA9db-99" value="DIV" style="rounded=0;whiteSpace=wrap;html=1;" vertex="1" parent="1">
          <mxGeometry x="530" y="500" width="80" height="20" as="geometry" />
        </mxCell>
        <mxCell id="AfduvXCLg51XsXEQA9db-100" value="DIV" style="rounded=0;whiteSpace=wrap;html=1;" vertex="1" parent="1">
          <mxGeometry x="440" y="500" width="80" height="20" as="geometry" />
        </mxCell>
        <mxCell id="AfduvXCLg51XsXEQA9db-140" style="edgeStyle=orthogonalEdgeStyle;shape=link;rounded=0;orthogonalLoop=1;jettySize=auto;html=1;exitX=0.5;exitY=0;exitDx=0;exitDy=0;entryX=0.5;entryY=1;entryDx=0;entryDy=0;" edge="1" parent="1" source="AfduvXCLg51XsXEQA9db-101" target="AfduvXCLg51XsXEQA9db-99">
          <mxGeometry relative="1" as="geometry" />
        </mxCell>
        <mxCell id="AfduvXCLg51XsXEQA9db-101" value="IMG" style="rounded=0;whiteSpace=wrap;html=1;" vertex="1" parent="1">
          <mxGeometry x="530" y="540" width="80" height="20" as="geometry" />
        </mxCell>
        <mxCell id="AfduvXCLg51XsXEQA9db-138" style="edgeStyle=orthogonalEdgeStyle;shape=link;rounded=0;orthogonalLoop=1;jettySize=auto;html=1;" edge="1" parent="1" source="AfduvXCLg51XsXEQA9db-102">
          <mxGeometry relative="1" as="geometry">
            <mxPoint x="480" y="520" as="targetPoint" />
            <Array as="points">
              <mxPoint x="720" y="680" />
              <mxPoint x="480" y="680" />
            </Array>
          </mxGeometry>
        </mxCell>
        <mxCell id="AfduvXCLg51XsXEQA9db-102" value="H4" style="rounded=0;whiteSpace=wrap;html=1;" vertex="1" parent="1">
          <mxGeometry x="700" y="720" width="40" height="20" as="geometry" />
        </mxCell>
        <mxCell id="AfduvXCLg51XsXEQA9db-124" style="edgeStyle=orthogonalEdgeStyle;shape=link;rounded=0;orthogonalLoop=1;jettySize=auto;html=1;exitX=0.5;exitY=0;exitDx=0;exitDy=0;entryX=0.5;entryY=1;entryDx=0;entryDy=0;" edge="1" parent="1" source="AfduvXCLg51XsXEQA9db-103" target="AfduvXCLg51XsXEQA9db-100">
          <mxGeometry relative="1" as="geometry">
            <mxPoint x="70" y="680" as="targetPoint" />
            <Array as="points">
              <mxPoint x="70" y="680" />
              <mxPoint x="480" y="680" />
            </Array>
          </mxGeometry>
        </mxCell>
        <mxCell id="AfduvXCLg51XsXEQA9db-103" value="BR" style="rounded=0;whiteSpace=wrap;html=1;" vertex="1" parent="1">
          <mxGeometry x="50" y="720" width="40" height="20" as="geometry" />
        </mxCell>
        <mxCell id="AfduvXCLg51XsXEQA9db-125" style="edgeStyle=orthogonalEdgeStyle;shape=link;rounded=0;orthogonalLoop=1;jettySize=auto;html=1;" edge="1" parent="1" source="AfduvXCLg51XsXEQA9db-104">
          <mxGeometry relative="1" as="geometry">
            <mxPoint x="480" y="520" as="targetPoint" />
            <Array as="points">
              <mxPoint x="120" y="680" />
              <mxPoint x="480" y="680" />
            </Array>
          </mxGeometry>
        </mxCell>
        <mxCell id="AfduvXCLg51XsXEQA9db-104" value="H4" style="rounded=0;whiteSpace=wrap;html=1;" vertex="1" parent="1">
          <mxGeometry x="100" y="720" width="40" height="20" as="geometry" />
        </mxCell>
        <mxCell id="AfduvXCLg51XsXEQA9db-126" style="edgeStyle=orthogonalEdgeStyle;shape=link;rounded=0;orthogonalLoop=1;jettySize=auto;html=1;exitX=0.5;exitY=0;exitDx=0;exitDy=0;" edge="1" parent="1" source="AfduvXCLg51XsXEQA9db-105">
          <mxGeometry relative="1" as="geometry">
            <mxPoint x="480" y="520" as="targetPoint" />
            <Array as="points">
              <mxPoint x="170" y="680" />
              <mxPoint x="480" y="680" />
            </Array>
          </mxGeometry>
        </mxCell>
        <mxCell id="AfduvXCLg51XsXEQA9db-105" value="P" style="rounded=0;whiteSpace=wrap;html=1;" vertex="1" parent="1">
          <mxGeometry x="150" y="720" width="40" height="20" as="geometry" />
        </mxCell>
        <mxCell id="AfduvXCLg51XsXEQA9db-127" style="edgeStyle=orthogonalEdgeStyle;shape=link;rounded=0;orthogonalLoop=1;jettySize=auto;html=1;exitX=0.5;exitY=0;exitDx=0;exitDy=0;" edge="1" parent="1" source="AfduvXCLg51XsXEQA9db-106">
          <mxGeometry relative="1" as="geometry">
            <mxPoint x="480" y="520" as="targetPoint" />
            <Array as="points">
              <mxPoint x="220" y="680" />
              <mxPoint x="480" y="680" />
            </Array>
          </mxGeometry>
        </mxCell>
        <mxCell id="AfduvXCLg51XsXEQA9db-106" value="BR" style="rounded=0;whiteSpace=wrap;html=1;" vertex="1" parent="1">
          <mxGeometry x="200" y="720" width="40" height="20" as="geometry" />
        </mxCell>
        <mxCell id="AfduvXCLg51XsXEQA9db-128" style="edgeStyle=orthogonalEdgeStyle;shape=link;rounded=0;orthogonalLoop=1;jettySize=auto;html=1;" edge="1" parent="1" source="AfduvXCLg51XsXEQA9db-107">
          <mxGeometry relative="1" as="geometry">
            <mxPoint x="480" y="520" as="targetPoint" />
            <Array as="points">
              <mxPoint x="270" y="680" />
              <mxPoint x="480" y="680" />
            </Array>
          </mxGeometry>
        </mxCell>
        <mxCell id="AfduvXCLg51XsXEQA9db-107" value="H4" style="rounded=0;whiteSpace=wrap;html=1;" vertex="1" parent="1">
          <mxGeometry x="250" y="720" width="40" height="20" as="geometry" />
        </mxCell>
        <mxCell id="AfduvXCLg51XsXEQA9db-129" style="edgeStyle=orthogonalEdgeStyle;shape=link;rounded=0;orthogonalLoop=1;jettySize=auto;html=1;" edge="1" parent="1" source="AfduvXCLg51XsXEQA9db-108">
          <mxGeometry relative="1" as="geometry">
            <mxPoint x="480" y="520" as="targetPoint" />
            <Array as="points">
              <mxPoint x="320" y="680" />
              <mxPoint x="480" y="680" />
            </Array>
          </mxGeometry>
        </mxCell>
        <mxCell id="AfduvXCLg51XsXEQA9db-108" value="P" style="rounded=0;whiteSpace=wrap;html=1;" vertex="1" parent="1">
          <mxGeometry x="300" y="720" width="40" height="20" as="geometry" />
        </mxCell>
        <mxCell id="AfduvXCLg51XsXEQA9db-130" style="edgeStyle=orthogonalEdgeStyle;shape=link;rounded=0;orthogonalLoop=1;jettySize=auto;html=1;" edge="1" parent="1" source="AfduvXCLg51XsXEQA9db-109">
          <mxGeometry relative="1" as="geometry">
            <mxPoint x="480" y="520" as="targetPoint" />
            <Array as="points">
              <mxPoint x="370" y="680" />
              <mxPoint x="480" y="680" />
            </Array>
          </mxGeometry>
        </mxCell>
        <mxCell id="AfduvXCLg51XsXEQA9db-109" value="BR" style="rounded=0;whiteSpace=wrap;html=1;" vertex="1" parent="1">
          <mxGeometry x="350" y="720" width="40" height="20" as="geometry" />
        </mxCell>
        <mxCell id="AfduvXCLg51XsXEQA9db-131" style="edgeStyle=orthogonalEdgeStyle;shape=link;rounded=0;orthogonalLoop=1;jettySize=auto;html=1;" edge="1" parent="1" source="AfduvXCLg51XsXEQA9db-110">
          <mxGeometry relative="1" as="geometry">
            <mxPoint x="480" y="520" as="targetPoint" />
            <Array as="points">
              <mxPoint x="420" y="680" />
              <mxPoint x="480" y="680" />
            </Array>
          </mxGeometry>
        </mxCell>
        <mxCell id="AfduvXCLg51XsXEQA9db-110" value="H4" style="rounded=0;whiteSpace=wrap;html=1;" vertex="1" parent="1">
          <mxGeometry x="400" y="720" width="40" height="20" as="geometry" />
        </mxCell>
        <mxCell id="AfduvXCLg51XsXEQA9db-132" style="edgeStyle=orthogonalEdgeStyle;shape=link;rounded=0;orthogonalLoop=1;jettySize=auto;html=1;exitX=0.5;exitY=0;exitDx=0;exitDy=0;" edge="1" parent="1" source="AfduvXCLg51XsXEQA9db-111">
          <mxGeometry relative="1" as="geometry">
            <mxPoint x="480" y="520" as="targetPoint" />
            <Array as="points">
              <mxPoint x="470" y="680" />
              <mxPoint x="480" y="680" />
            </Array>
          </mxGeometry>
        </mxCell>
        <mxCell id="AfduvXCLg51XsXEQA9db-111" value="P" style="rounded=0;whiteSpace=wrap;html=1;" vertex="1" parent="1">
          <mxGeometry x="450" y="720" width="40" height="20" as="geometry" />
        </mxCell>
        <mxCell id="AfduvXCLg51XsXEQA9db-133" style="edgeStyle=orthogonalEdgeStyle;shape=link;rounded=0;orthogonalLoop=1;jettySize=auto;html=1;entryX=0.5;entryY=1;entryDx=0;entryDy=0;" edge="1" parent="1" source="AfduvXCLg51XsXEQA9db-112" target="AfduvXCLg51XsXEQA9db-100">
          <mxGeometry relative="1" as="geometry">
            <Array as="points">
              <mxPoint x="520" y="680" />
              <mxPoint x="480" y="680" />
            </Array>
          </mxGeometry>
        </mxCell>
        <mxCell id="AfduvXCLg51XsXEQA9db-112" value="BR" style="rounded=0;whiteSpace=wrap;html=1;" vertex="1" parent="1">
          <mxGeometry x="500" y="720" width="40" height="20" as="geometry" />
        </mxCell>
        <mxCell id="AfduvXCLg51XsXEQA9db-134" style="edgeStyle=orthogonalEdgeStyle;shape=link;rounded=0;orthogonalLoop=1;jettySize=auto;html=1;" edge="1" parent="1" source="AfduvXCLg51XsXEQA9db-113">
          <mxGeometry relative="1" as="geometry">
            <mxPoint x="480" y="520" as="targetPoint" />
            <Array as="points">
              <mxPoint x="570" y="680" />
              <mxPoint x="480" y="680" />
            </Array>
          </mxGeometry>
        </mxCell>
        <mxCell id="AfduvXCLg51XsXEQA9db-113" value="H4" style="rounded=0;whiteSpace=wrap;html=1;" vertex="1" parent="1">
          <mxGeometry x="550" y="720" width="40" height="20" as="geometry" />
        </mxCell>
        <mxCell id="AfduvXCLg51XsXEQA9db-135" style="edgeStyle=orthogonalEdgeStyle;shape=link;rounded=0;orthogonalLoop=1;jettySize=auto;html=1;entryX=0.5;entryY=1;entryDx=0;entryDy=0;" edge="1" parent="1" source="AfduvXCLg51XsXEQA9db-114" target="AfduvXCLg51XsXEQA9db-100">
          <mxGeometry relative="1" as="geometry">
            <Array as="points">
              <mxPoint x="620" y="680" />
              <mxPoint x="480" y="680" />
            </Array>
          </mxGeometry>
        </mxCell>
        <mxCell id="AfduvXCLg51XsXEQA9db-114" value="P" style="rounded=0;whiteSpace=wrap;html=1;" vertex="1" parent="1">
          <mxGeometry x="600" y="720" width="40" height="20" as="geometry" />
        </mxCell>
        <mxCell id="AfduvXCLg51XsXEQA9db-137" style="edgeStyle=orthogonalEdgeStyle;shape=link;rounded=0;orthogonalLoop=1;jettySize=auto;html=1;" edge="1" parent="1" source="AfduvXCLg51XsXEQA9db-115">
          <mxGeometry relative="1" as="geometry">
            <mxPoint x="480" y="520" as="targetPoint" />
            <Array as="points">
              <mxPoint x="670" y="680" />
              <mxPoint x="480" y="680" />
            </Array>
          </mxGeometry>
        </mxCell>
        <mxCell id="AfduvXCLg51XsXEQA9db-115" value="BR" style="rounded=0;whiteSpace=wrap;html=1;" vertex="1" parent="1">
          <mxGeometry x="650" y="720" width="40" height="20" as="geometry" />
        </mxCell>
        <mxCell id="AfduvXCLg51XsXEQA9db-139" style="edgeStyle=orthogonalEdgeStyle;shape=link;rounded=0;orthogonalLoop=1;jettySize=auto;html=1;" edge="1" parent="1" source="AfduvXCLg51XsXEQA9db-119">
          <mxGeometry relative="1" as="geometry">
            <mxPoint x="480" y="520" as="targetPoint" />
            <Array as="points">
              <mxPoint x="770" y="680" />
              <mxPoint x="480" y="680" />
            </Array>
          </mxGeometry>
        </mxCell>
        <mxCell id="AfduvXCLg51XsXEQA9db-119" value="P" style="rounded=0;whiteSpace=wrap;html=1;" vertex="1" parent="1">
          <mxGeometry x="750" y="720" width="40" height="20" as="geometry" />
        </mxCell>
        <mxCell id="AfduvXCLg51XsXEQA9db-175" style="edgeStyle=orthogonalEdgeStyle;shape=link;rounded=0;orthogonalLoop=1;jettySize=auto;html=1;entryX=0.5;entryY=1;entryDx=0;entryDy=0;" edge="1" parent="1" source="AfduvXCLg51XsXEQA9db-122" target="AfduvXCLg51XsXEQA9db-67">
          <mxGeometry relative="1" as="geometry">
            <Array as="points">
              <mxPoint x="690" y="480" />
              <mxPoint x="1040" y="480" />
            </Array>
          </mxGeometry>
        </mxCell>
        <mxCell id="AfduvXCLg51XsXEQA9db-122" value="H1" style="rounded=0;whiteSpace=wrap;html=1;" vertex="1" parent="1">
          <mxGeometry x="650" y="500" width="80" height="20" as="geometry" />
        </mxCell>
        <mxCell id="AfduvXCLg51XsXEQA9db-180" style="edgeStyle=orthogonalEdgeStyle;shape=link;rounded=0;orthogonalLoop=1;jettySize=auto;html=1;" edge="1" parent="1" source="AfduvXCLg51XsXEQA9db-143">
          <mxGeometry relative="1" as="geometry">
            <mxPoint x="1040" y="460" as="targetPoint" />
            <Array as="points">
              <mxPoint x="1140" y="480" />
              <mxPoint x="1040" y="480" />
            </Array>
          </mxGeometry>
        </mxCell>
        <mxCell id="AfduvXCLg51XsXEQA9db-143" value="FORM" style="rounded=0;whiteSpace=wrap;html=1;" vertex="1" parent="1">
          <mxGeometry x="1100" y="500" width="80" height="20" as="geometry" />
        </mxCell>
        <mxCell id="AfduvXCLg51XsXEQA9db-167" style="edgeStyle=orthogonalEdgeStyle;shape=link;rounded=0;orthogonalLoop=1;jettySize=auto;html=1;exitX=0.5;exitY=1;exitDx=0;exitDy=0;entryX=0.5;entryY=0;entryDx=0;entryDy=0;" edge="1" parent="1" source="AfduvXCLg51XsXEQA9db-144" target="AfduvXCLg51XsXEQA9db-145">
          <mxGeometry relative="1" as="geometry" />
        </mxCell>
        <mxCell id="AfduvXCLg51XsXEQA9db-168" style="edgeStyle=orthogonalEdgeStyle;shape=link;rounded=0;orthogonalLoop=1;jettySize=auto;html=1;entryX=0.5;entryY=1;entryDx=0;entryDy=0;" edge="1" parent="1" source="AfduvXCLg51XsXEQA9db-144" target="AfduvXCLg51XsXEQA9db-143">
          <mxGeometry relative="1" as="geometry">
            <Array as="points">
              <mxPoint x="940" y="640" />
              <mxPoint x="1140" y="640" />
            </Array>
          </mxGeometry>
        </mxCell>
        <mxCell id="AfduvXCLg51XsXEQA9db-144" value="P" style="rounded=0;whiteSpace=wrap;html=1;" vertex="1" parent="1">
          <mxGeometry x="920" y="680" width="40" height="20" as="geometry" />
        </mxCell>
        <mxCell id="AfduvXCLg51XsXEQA9db-145" value="INPUT" style="rounded=0;whiteSpace=wrap;html=1;" vertex="1" parent="1">
          <mxGeometry x="920" y="720" width="40" height="20" as="geometry" />
        </mxCell>
        <mxCell id="AfduvXCLg51XsXEQA9db-166" style="edgeStyle=orthogonalEdgeStyle;shape=link;rounded=0;orthogonalLoop=1;jettySize=auto;html=1;exitX=0.5;exitY=1;exitDx=0;exitDy=0;entryX=0.5;entryY=0;entryDx=0;entryDy=0;" edge="1" parent="1" source="AfduvXCLg51XsXEQA9db-146" target="AfduvXCLg51XsXEQA9db-147">
          <mxGeometry relative="1" as="geometry" />
        </mxCell>
        <mxCell id="AfduvXCLg51XsXEQA9db-169" style="edgeStyle=orthogonalEdgeStyle;shape=link;rounded=0;orthogonalLoop=1;jettySize=auto;html=1;exitX=0.5;exitY=0;exitDx=0;exitDy=0;" edge="1" parent="1" source="AfduvXCLg51XsXEQA9db-146">
          <mxGeometry relative="1" as="geometry">
            <mxPoint x="1140" y="520" as="targetPoint" />
            <Array as="points">
              <mxPoint x="990" y="640" />
              <mxPoint x="1140" y="640" />
            </Array>
          </mxGeometry>
        </mxCell>
        <mxCell id="AfduvXCLg51XsXEQA9db-146" value="P" style="rounded=0;whiteSpace=wrap;html=1;" vertex="1" parent="1">
          <mxGeometry x="970" y="680" width="40" height="20" as="geometry" />
        </mxCell>
        <mxCell id="AfduvXCLg51XsXEQA9db-147" value="INPUT" style="rounded=0;whiteSpace=wrap;html=1;" vertex="1" parent="1">
          <mxGeometry x="970" y="720" width="40" height="20" as="geometry" />
        </mxCell>
        <mxCell id="AfduvXCLg51XsXEQA9db-165" style="edgeStyle=orthogonalEdgeStyle;shape=link;rounded=0;orthogonalLoop=1;jettySize=auto;html=1;exitX=0.5;exitY=1;exitDx=0;exitDy=0;entryX=0.5;entryY=0;entryDx=0;entryDy=0;" edge="1" parent="1" source="AfduvXCLg51XsXEQA9db-148" target="AfduvXCLg51XsXEQA9db-149">
          <mxGeometry relative="1" as="geometry" />
        </mxCell>
        <mxCell id="AfduvXCLg51XsXEQA9db-170" style="edgeStyle=orthogonalEdgeStyle;shape=link;rounded=0;orthogonalLoop=1;jettySize=auto;html=1;exitX=0.5;exitY=0;exitDx=0;exitDy=0;" edge="1" parent="1" source="AfduvXCLg51XsXEQA9db-148">
          <mxGeometry relative="1" as="geometry">
            <mxPoint x="1140" y="520" as="targetPoint" />
            <Array as="points">
              <mxPoint x="1040" y="640" />
              <mxPoint x="1140" y="640" />
            </Array>
          </mxGeometry>
        </mxCell>
        <mxCell id="AfduvXCLg51XsXEQA9db-148" value="P" style="rounded=0;whiteSpace=wrap;html=1;" vertex="1" parent="1">
          <mxGeometry x="1020" y="680" width="40" height="20" as="geometry" />
        </mxCell>
        <mxCell id="AfduvXCLg51XsXEQA9db-149" value="INPUT" style="rounded=0;whiteSpace=wrap;html=1;" vertex="1" parent="1">
          <mxGeometry x="1020" y="720" width="40" height="20" as="geometry" />
        </mxCell>
        <mxCell id="AfduvXCLg51XsXEQA9db-164" style="edgeStyle=orthogonalEdgeStyle;shape=link;rounded=0;orthogonalLoop=1;jettySize=auto;html=1;entryX=0.5;entryY=0;entryDx=0;entryDy=0;" edge="1" parent="1" source="AfduvXCLg51XsXEQA9db-153" target="AfduvXCLg51XsXEQA9db-154">
          <mxGeometry relative="1" as="geometry" />
        </mxCell>
        <mxCell id="AfduvXCLg51XsXEQA9db-171" style="edgeStyle=orthogonalEdgeStyle;shape=link;rounded=0;orthogonalLoop=1;jettySize=auto;html=1;exitX=0.5;exitY=0;exitDx=0;exitDy=0;" edge="1" parent="1" source="AfduvXCLg51XsXEQA9db-153">
          <mxGeometry relative="1" as="geometry">
            <mxPoint x="1140" y="520" as="targetPoint" />
            <Array as="points">
              <mxPoint x="1090" y="640" />
              <mxPoint x="1140" y="640" />
            </Array>
          </mxGeometry>
        </mxCell>
        <mxCell id="AfduvXCLg51XsXEQA9db-153" value="P" style="rounded=0;whiteSpace=wrap;html=1;" vertex="1" parent="1">
          <mxGeometry x="1070" y="680" width="40" height="20" as="geometry" />
        </mxCell>
        <mxCell id="AfduvXCLg51XsXEQA9db-154" value="INPUT" style="rounded=0;whiteSpace=wrap;html=1;" vertex="1" parent="1">
          <mxGeometry x="1070" y="720" width="40" height="20" as="geometry" />
        </mxCell>
        <mxCell id="AfduvXCLg51XsXEQA9db-161" style="edgeStyle=orthogonalEdgeStyle;shape=link;rounded=0;orthogonalLoop=1;jettySize=auto;html=1;exitX=0.5;exitY=0;exitDx=0;exitDy=0;entryX=0.5;entryY=1;entryDx=0;entryDy=0;" edge="1" parent="1" source="AfduvXCLg51XsXEQA9db-155" target="AfduvXCLg51XsXEQA9db-143">
          <mxGeometry relative="1" as="geometry">
            <Array as="points">
              <mxPoint x="1140" y="620" />
            </Array>
          </mxGeometry>
        </mxCell>
        <mxCell id="AfduvXCLg51XsXEQA9db-163" style="edgeStyle=orthogonalEdgeStyle;shape=link;rounded=0;orthogonalLoop=1;jettySize=auto;html=1;exitX=0.5;exitY=1;exitDx=0;exitDy=0;entryX=0.5;entryY=0;entryDx=0;entryDy=0;" edge="1" parent="1" source="AfduvXCLg51XsXEQA9db-155" target="AfduvXCLg51XsXEQA9db-156">
          <mxGeometry relative="1" as="geometry" />
        </mxCell>
        <mxCell id="AfduvXCLg51XsXEQA9db-155" value="P" style="rounded=0;whiteSpace=wrap;html=1;" vertex="1" parent="1">
          <mxGeometry x="1120" y="680" width="40" height="20" as="geometry" />
        </mxCell>
        <mxCell id="AfduvXCLg51XsXEQA9db-156" value="BUTTON" style="rounded=0;whiteSpace=wrap;html=1;" vertex="1" parent="1">
          <mxGeometry x="1120" y="720" width="50" height="20" as="geometry" />
        </mxCell>
        <mxCell id="AfduvXCLg51XsXEQA9db-179" style="edgeStyle=orthogonalEdgeStyle;shape=link;rounded=0;orthogonalLoop=1;jettySize=auto;html=1;" edge="1" parent="1" source="AfduvXCLg51XsXEQA9db-157">
          <mxGeometry relative="1" as="geometry">
            <mxPoint x="1040" y="460" as="targetPoint" />
          </mxGeometry>
        </mxCell>
        <mxCell id="AfduvXCLg51XsXEQA9db-157" value="P" style="rounded=0;whiteSpace=wrap;html=1;" vertex="1" parent="1">
          <mxGeometry x="1010" y="500" width="80" height="20" as="geometry" />
        </mxCell>
        <mxCell id="AfduvXCLg51XsXEQA9db-177" style="edgeStyle=orthogonalEdgeStyle;shape=link;rounded=0;orthogonalLoop=1;jettySize=auto;html=1;entryX=0.5;entryY=1;entryDx=0;entryDy=0;" edge="1" parent="1" source="AfduvXCLg51XsXEQA9db-158" target="AfduvXCLg51XsXEQA9db-67">
          <mxGeometry relative="1" as="geometry">
            <Array as="points">
              <mxPoint x="867" y="480" />
              <mxPoint x="1040" y="480" />
            </Array>
          </mxGeometry>
        </mxCell>
        <mxCell id="AfduvXCLg51XsXEQA9db-158" value="P" style="rounded=0;whiteSpace=wrap;html=1;" vertex="1" parent="1">
          <mxGeometry x="827" y="500" width="80" height="20" as="geometry" />
        </mxCell>
        <mxCell id="AfduvXCLg51XsXEQA9db-176" style="edgeStyle=orthogonalEdgeStyle;shape=link;rounded=0;orthogonalLoop=1;jettySize=auto;html=1;" edge="1" parent="1" source="AfduvXCLg51XsXEQA9db-159">
          <mxGeometry relative="1" as="geometry">
            <mxPoint x="1040" y="460" as="targetPoint" />
            <Array as="points">
              <mxPoint x="780" y="480" />
              <mxPoint x="1040" y="480" />
            </Array>
          </mxGeometry>
        </mxCell>
        <mxCell id="AfduvXCLg51XsXEQA9db-159" value="BR" style="rounded=0;whiteSpace=wrap;html=1;" vertex="1" parent="1">
          <mxGeometry x="740" y="500" width="80" height="20" as="geometry" />
        </mxCell>
        <mxCell id="AfduvXCLg51XsXEQA9db-174" style="edgeStyle=orthogonalEdgeStyle;shape=link;rounded=0;orthogonalLoop=1;jettySize=auto;html=1;entryX=0.5;entryY=0;entryDx=0;entryDy=0;" edge="1" parent="1" source="AfduvXCLg51XsXEQA9db-160" target="AfduvXCLg51XsXEQA9db-173">
          <mxGeometry relative="1" as="geometry" />
        </mxCell>
        <mxCell id="AfduvXCLg51XsXEQA9db-178" style="edgeStyle=orthogonalEdgeStyle;shape=link;rounded=0;orthogonalLoop=1;jettySize=auto;html=1;" edge="1" parent="1" source="AfduvXCLg51XsXEQA9db-160">
          <mxGeometry relative="1" as="geometry">
            <mxPoint x="1040" y="460" as="targetPoint" />
            <Array as="points">
              <mxPoint x="960" y="480" />
              <mxPoint x="1040" y="480" />
            </Array>
          </mxGeometry>
        </mxCell>
        <mxCell id="AfduvXCLg51XsXEQA9db-160" value="P" style="rounded=0;whiteSpace=wrap;html=1;" vertex="1" parent="1">
          <mxGeometry x="920" y="500" width="80" height="20" as="geometry" />
        </mxCell>
        <mxCell id="AfduvXCLg51XsXEQA9db-173" value="B" style="rounded=0;whiteSpace=wrap;html=1;" vertex="1" parent="1">
          <mxGeometry x="920" y="550" width="80" height="20" as="geometry" />
        </mxCell>
      </root>
    </mxGraphModel>
  </diagram>
</mxfile>
